<svg id="visual" viewBox="0 0 900 300" width="900" height="300" xmlns="http://www.w3.org/2000/svg" xmlns:xlink="http://www.w3.org/1999/xlink" version="1.1"><rect x="0" y="0" width="900" height="300" fill="#0f0f10"></rect><path d="M0 117L11.5 123.5C23 130 46 143 69 145.3C92 147.7 115 139.3 138.2 139.8C161.3 140.3 184.7 149.7 207.8 156.2C231 162.7 254 166.3 277 162.7C300 159 323 148 346 147.7C369 147.3 392 157.7 415.2 162.8C438.3 168 461.7 168 484.8 162.3C508 156.7 531 145.3 554 142.3C577 139.3 600 144.7 623 142C646 139.3 669 128.7 692.2 127.8C715.3 127 738.7 136 761.8 145C785 154 808 163 831 163.2C854 163.3 877 154.7 888.5 150.3L900 146L900 0L888.5 0C877 0 854 0 831 0C808 0 785 0 761.8 0C738.7 0 715.3 0 692.2 0C669 0 646 0 623 0C600 0 577 0 554 0C531 0 508 0 484.8 0C461.7 0 438.3 0 415.2 0C392 0 369 0 346 0C323 0 300 0 277 0C254 0 231 0 207.8 0C184.7 0 161.3 0 138.2 0C115 0 92 0 69 0C46 0 23 0 11.5 0L0 0Z" fill="#31de83"></path><path d="M0 104L11.5 103C23 102 46 100 69 106.2C92 112.3 115 126.7 138.2 129.3C161.3 132 184.7 123 207.8 118.7C231 114.3 254 114.7 277 117C300 119.3 323 123.7 346 120C369 116.3 392 104.7 415.2 104C438.3 103.3 461.7 113.7 484.8 112C508 110.3 531 96.7 554 90.3C577 84 600 85 623 86C646 87 669 88 692.2 91C715.3 94 738.7 99 761.8 105C785 111 808 118 831 120.2C854 122.3 877 119.7 888.5 118.3L900 117L900 0L888.5 0C877 0 854 0 831 0C808 0 785 0 761.8 0C738.7 0 715.3 0 692.2 0C669 0 646 0 623 0C600 0 577 0 554 0C531 0 508 0 484.8 0C461.7 0 438.3 0 415.2 0C392 0 369 0 346 0C323 0 300 0 277 0C254 0 231 0 207.8 0C184.7 0 161.3 0 138.2 0C115 0 92 0 69 0C46 0 23 0 11.5 0L0 0Z" fill="#89c03c"></path><path d="M0 83L11.5 80.2C23 77.3 46 71.7 69 73.8C92 76 115 86 138.2 89C161.3 92 184.7 88 207.8 90.3C231 92.7 254 101.3 277 98.3C300 95.3 323 80.7 346 73.5C369 66.3 392 66.7 415.2 66.3C438.3 66 461.7 65 484.8 71.7C508 78.3 531 92.7 554 100.5C577 108.3 600 109.7 623 107.7C646 105.7 669 100.3 692.2 97.2C715.3 94 738.7 93 761.8 89.8C785 86.7 808 81.3 831 83.8C854 86.3 877 96.7 888.5 101.8L900 107L900 0L888.5 0C877 0 854 0 831 0C808 0 785 0 761.8 0C738.7 0 715.3 0 692.2 0C669 0 646 0 623 0C600 0 577 0 554 0C531 0 508 0 484.8 0C461.7 0 438.3 0 415.2 0C392 0 369 0 346 0C323 0 300 0 277 0C254 0 231 0 207.8 0C184.7 0 161.3 0 138.2 0C115 0 92 0 69 0C46 0 23 0 11.5 0L0 0Z" fill="#b39d00"></path><path d="M0 56L11.5 57.8C23 59.7 46 63.3 69 64.5C92 65.7 115 64.3 138.2 60.5C161.3 56.7 184.7 50.3 207.8 46.7C231 43 254 42 277 41.2C300 40.3 323 39.7 346 43.8C369 48 392 57 415.2 63.2C438.3 69.3 461.7 72.7 484.8 73.5C508 74.3 531 72.7 554 73.3C577 74 600 77 623 75.5C646 74 669 68 692.2 67.2C715.3 66.3 738.7 70.7 761.8 71.7C785 72.7 808 70.3 831 67.7C854 65 877 62 888.5 60.5L900 59L900 0L888.5 0C877 0 854 0 831 0C808 0 785 0 761.8 0C738.7 0 715.3 0 692.2 0C669 0 646 0 623 0C600 0 577 0 554 0C531 0 508 0 484.8 0C461.7 0 438.3 0 415.2 0C392 0 369 0 346 0C323 0 300 0 277 0C254 0 231 0 207.8 0C184.7 0 161.3 0 138.2 0C115 0 92 0 69 0C46 0 23 0 11.5 0L0 0Z" fill="#cf7401"></path><path d="M0 39L11.5 37.5C23 36 46 33 69 30.8C92 28.7 115 27.3 138.2 30.5C161.3 33.7 184.7 41.3 207.8 44.3C231 47.3 254 45.7 277 42.7C300 39.7 323 35.3 346 33C369 30.7 392 30.3 415.2 32.3C438.3 34.3 461.7 38.7 484.8 37.8C508 37 531 31 554 29.2C577 27.3 600 29.7 623 31.7C646 33.7 669 35.3 692.2 33.5C715.3 31.7 738.7 26.3 761.8 23.8C785 21.3 808 21.7 831 23.8C854 26 877 30 888.5 32L900 34L900 0L888.5 0C877 0 854 0 831 0C808 0 785 0 761.8 0C738.7 0 715.3 0 692.2 0C669 0 646 0 623 0C600 0 577 0 554 0C531 0 508 0 484.8 0C461.7 0 438.3 0 415.2 0C392 0 369 0 346 0C323 0 300 0 277 0C254 0 231 0 207.8 0C184.7 0 161.3 0 138.2 0C115 0 92 0 69 0C46 0 23 0 11.5 0L0 0Z" fill="#dd3f31"></path></svg>